# xmcd
#
# Track frame offsets:
#	150
#	13672
#	27130
#	45209
#	61611
#	84801
#	106317
#	119789
#	135197
#	152331
#	173805
#	187329
#	208161
#	232839
#	248007
#	265031
#	284918
#	305491
#
# Disc length: 4323 seconds
#
# Revision: 1
# Processed by: cddbd v1.5.1PL0 Copyright (c) Steve Scherf et al.
# Submitted via: audiograbber 1.83.01
#
DISCID=e610e112
DTITLE=Latino - Vareado de Balladas
DYEAR=200
DGENRE=Ballad
TTITLE0=1
TTITLE1=2
TTITLE2=3
TTITLE3=4
TTITLE4=5
TTITLE5=6
TTITLE6=7
TTITLE7=8
TTITLE8=9
TTITLE9=10
TTITLE10=11
TTITLE11=23
TTITLE12=13
TTITLE13=14
TTITLE14=15
TTITLE15=16
TTITLE16=17
TTITLE17=18
EXTD=Variasdo Balladas
EXTT0=Variado De Balados
EXTT1=
EXTT2=
EXTT3=
EXTT4=
EXTT5=
EXTT6=
EXTT7=
EXTT8=
EXTT9=
EXTT10=
EXTT11=
EXTT12=
EXTT13=
EXTT14=
EXTT15=
EXTT16=
EXTT17=
PLAYORDER=
